<svg width="25" height="25" viewBox="0 0 25 25" fill="none" xmlns="http://www.w3.org/2000/svg">
<path d="M12.5 25C19.3875 25 25 19.3875 25 12.5C25 5.6125 19.3875 9.99456e-07 12.5 3.97331e-07C5.6125 -2.04793e-07 3.18503e-06 5.6125 2.5829e-06 12.5C1.98078e-06 19.3875 5.6125 25 12.5 25ZM9.0125 11.8375L13.425 7.425C13.6125 7.2375 13.85 7.15 14.0875 7.15C14.325 7.15 14.5625 7.2375 14.75 7.425C15.1125 7.7875 15.1125 8.3875 14.75 8.75L11 12.5L14.75 16.25C15.1125 16.6125 15.1125 17.2125 14.75 17.575C14.3875 17.9375 13.7875 17.9375 13.425 17.575L9.0125 13.1625C8.6375 12.8 8.6375 12.2 9.0125 11.8375Z" fill="#D3D3D3"/>
</svg>
