<svg width="10" height="10" viewBox="0 0 10 10" fill="none" xmlns="http://www.w3.org/2000/svg">
<path d="M5.61854 0.684117L6.46151 2.37006C6.57646 2.59996 6.88299 2.82986 7.13844 2.86818L8.66473 3.12362C9.64181 3.28966 9.87171 3.99214 9.16923 4.69461L7.98141 5.88882C7.78344 6.08679 7.66849 6.47635 7.73235 6.75734L8.07082 8.23253C8.33903 9.39481 7.71958 9.84823 6.69141 9.24154L5.26091 8.39219C4.99908 8.23892 4.5776 8.23892 4.31577 8.39219L2.87888 9.23516C1.85072 9.84184 1.23126 9.38842 1.49948 8.22615L1.83794 6.75095C1.90181 6.47635 1.78685 6.08679 1.58888 5.88243L0.407449 4.701C-0.295027 3.99852 -0.0651257 3.28966 0.911954 3.13001L2.43824 2.87456C2.69369 2.82986 3.00022 2.60635 3.11517 2.37644L3.95814 0.690503C4.41156 -0.229101 5.16512 -0.229101 5.61854 0.684117Z" fill="#F3CC40"/>
</svg>
