<svg width="30" height="30" viewBox="0 0 30 30" fill="none" xmlns="http://www.w3.org/2000/svg">
<path d="M11.6 25.3875C11.8125 25.9875 11.1625 26.5375 10.6125 26.2125L6.67502 23.975C5.96252 23.5625 5.52504 22.575 5.67504 21.775L6.85004 15.9375C6.98754 15.25 7.93754 15.1875 8.17504 15.8375L11.6 25.3875Z" fill="#F53838"/>
<path d="M23.325 23.975L19.375 26.225C18.825 26.5375 18.175 26 18.3875 25.4L21.825 15.7625C22.0625 15.1125 23.0125 15.175 23.15 15.8625L24.3375 21.775C24.475 22.575 24.0375 23.5625 23.325 23.975Z" fill="#F53838"/>
<path d="M21.35 9.14999C21.65 9.52499 21.7375 10.025 21.575 10.475L15.65 27.0375C15.4375 27.65 14.575 27.65 14.3625 27.0375L8.43749 10.4875C8.27499 10.0375 8.36248 9.53749 8.66248 9.16249L13.4375 3.28749C14.3 2.24999 15.725 2.24999 16.6 3.28749L21.35 9.14999Z" fill="#F53838"/>
</svg>
